<svg xmlns="http://www.w3.org/2000/svg" xmlns:v="https://svgstorm.com"
viewBox = "0 0 500 500"
width="500"
height="500">
<g fill="None" fill-opacity="0.0" stroke="#000000" stroke-opacity="0.00" stroke-width="0.3"><path d="
M 0.00 500.00 
L 500.00 500.00
L 500.00 0.00
L 0.00 0.00
L 0.00 500.00
M 231.00 139.00 
C 246.16 142.09 255.52 154.35 268.25 162.75 C 280.97 171.15 281.87 194.86 268.25 204.25 C 254.63 213.64 241.60 219.90 225.00 222.00 C 208.40 224.10 186.50 223.31 171.78 216.22 C 157.05 209.14 146.10 200.85 131.00 195.00
C 135.95 187.33 145.60 185.44 154.23 180.23 C 162.86 175.01 172.33 182.93 179.70 188.30 C 187.06 193.67 198.40 197.32 207.00 199.00
C 209.67 199.00 212.33 199.00 215.00 199.00
C 223.02 194.40 233.69 195.31 239.30 186.30 C 244.90 177.29 237.48 169.51 229.75 164.25 C 222.03 158.98 214.86 153.93 206.00 151.00
C 209.15 145.08 219.30 141.73 226.00 139.00
C 227.82 137.21 229.15 138.62 231.00 139.00
M 265.00 231.00 
C 264.84 231.44 265.00 232.00 265.00 232.00
C 254.12 249.50 241.70 264.62 240.00 286.00
C 239.35 294.21 240.00 302.76 240.00 311.00
C 240.00 311.50 240.00 312.00 240.00 312.00
C 243.64 316.49 243.62 323.04 248.25 327.75 C 252.88 332.46 259.42 332.63 264.00 336.00
C 267.00 336.00 270.00 336.00 273.00 336.00
C 276.95 335.44 283.24 331.99 287.00 334.00
C 278.91 338.92 270.93 345.02 262.25 349.25 C 253.58 353.49 244.82 362.48 235.00 361.00
C 225.45 362.18 228.60 347.17 229.00 343.00
C 229.00 340.33 229.00 337.67 229.00 335.00
C 228.59 330.72 228.43 324.88 228.00 320.00
C 226.52 303.14 220.03 288.12 214.00 273.00
C 213.83 272.57 214.00 272.00 214.00 272.00
C 205.35 266.37 202.11 254.66 193.90 248.10 C 185.69 241.54 173.83 237.28 166.00 231.00
C 165.50 230.99 165.00 231.00 165.00 231.00
C 155.76 231.62 147.77 229.75 139.75 234.75 C 131.73 239.76 131.89 247.69 125.00 252.00
C 124.95 252.50 125.00 253.00 125.00 253.00
C 124.95 255.32 124.12 257.02 123.00 259.00
C 121.07 249.28 122.14 234.12 122.00 224.00 C 121.86 213.88 118.90 197.76 132.00 199.00
C 140.18 199.02 144.90 210.14 153.25 212.75 C 161.59 215.37 170.33 220.53 179.67 222.33 C 189.01 224.12 201.71 226.88 212.00 226.00 C 222.29 225.12 234.50 224.72 243.67 221.67 C 252.84 218.62 260.76 215.97 267.75 209.75 C 274.73 203.52 280.65 196.69 282.00 188.00
C 282.00 185.67 282.00 183.33 282.00 181.00
C 279.02 176.24 279.31 168.74 275.23 163.77 C 271.15 158.80 266.46 155.28 263.00 151.00
C 271.40 153.04 285.40 162.32 293.25 166.75 C 301.09 171.19 321.90 178.06 319.00 189.00 C 316.10 199.94 297.91 200.46 290.75 208.75 C 283.60 217.04 271.25 222.77 265.00 231.00
M 206.00 154.00 
C 215.27 156.05 219.46 164.96 228.75 168.25 C 238.03 171.55 241.90 184.35 231.25 190.25 C 220.61 196.16 212.64 195.08 199.98 194.02 C 187.31 192.97 185.37 182.81 186.02 171.98 C 186.68 161.14 193.83 151.30 206.00 154.00
M 322.00 214.00 
C 322.00 215.99 322.09 218.01 322.00 220.00
C 321.62 228.74 316.20 233.04 308.97 235.97 C 301.74 238.91 296.38 241.81 290.30 246.30 C 284.23 250.80 280.92 255.57 276.75 261.75 C 272.58 267.93 270.96 277.09 271.00 285.00 C 271.04 292.91 277.73 300.20 285.00 300.00 C 292.27 299.80 300.45 293.74 305.23 291.23 C 310.01 288.72 321.20 279.02 322.00 282.00
C 322.52 283.07 322.00 285.78 322.00 287.00
C 322.56 292.30 323.61 298.68 322.00 304.00
C 317.41 319.12 297.10 321.37 284.31 330.31 C 271.51 339.24 247.24 328.51 244.22 311.78 C 241.21 295.05 243.35 273.79 251.26 259.26 C 259.16 244.73 264.80 232.00 277.75 221.75 C 290.69 211.49 304.52 205.73 318.00 197.00
C 326.89 191.25 322.56 208.23 322.00 214.00
M 225.00 348.00 
C 225.00 350.00 225.00 352.00 225.00 354.00
C 225.16 355.63 226.94 358.67 226.00 361.00
C 215.98 355.42 201.86 350.26 197.00 339.00
C 197.02 338.50 197.00 338.00 197.00 338.00
C 194.34 334.41 196.65 327.58 197.00 324.00
C 197.00 320.33 197.00 316.67 197.00 313.00
C 195.82 300.80 191.19 289.21 184.00 279.00
C 183.79 278.70 183.32 278.20 183.00 278.00
C 175.45 273.33 160.29 262.64 153.30 274.30 C 146.30 285.96 151.09 302.41 151.00 315.00
C 143.90 314.26 133.54 311.02 129.08 302.92 C 124.63 294.82 127.28 277.68 128.00 269.00
C 128.00 267.33 127.99 265.67 128.00 264.00
C 128.07 253.39 135.09 233.75 149.00 235.00
C 149.50 235.04 150.00 235.00 150.00 235.00
C 164.59 228.63 180.15 243.35 192.23 252.77 C 204.31 262.19 211.24 275.93 218.31 290.69 C 225.37 305.46 225.00 330.47 225.00 348.00
M 302.00 247.00 
C 310.11 248.91 318.94 257.33 322.32 265.68 C 325.71 274.03 313.49 283.86 305.77 286.77 C 298.05 289.68 288.13 301.51 279.31 294.69 C 270.48 287.88 275.85 271.81 279.78 264.78 C 283.71 257.74 292.88 244.85 302.00 247.00
M 170.00 273.00 
C 177.68 274.90 183.35 285.48 187.32 291.68 C 191.30 297.87 195.86 313.35 186.75 317.75 C 177.65 322.15 170.58 328.83 160.25 322.75 C 149.93 316.66 155.74 303.61 154.00 293.00 C 152.26 282.39 156.66 269.69 170.00 273.00 Z"/>
</g>
<g fill="None" fill-opacity="0.0" stroke="#A4A4A4" stroke-opacity="0.36" stroke-width="0.3"><path d="
M 226.00 139.00 
C 225.75 139.25 226.00 140.00 226.00 140.00
C 226.90 140.31 230.10 140.31 231.00 140.00
C 230.84 139.94 231.00 139.00 231.00 139.00
C 229.15 138.62 227.82 137.21 226.00 139.00 Z"/>
</g>
<g fill="None" fill-opacity="0.0" stroke="#D2D2D2" stroke-opacity="0.18" stroke-width="0.3"><path d="
M 215.00 199.00 
C 215.50 199.00 216.00 199.00 216.00 199.00
C 228.29 199.82 249.70 185.23 240.69 172.31 C 231.69 159.38 218.81 157.68 207.00 150.00
C 212.85 146.26 219.23 142.20 226.00 140.00
C 226.00 140.00 225.75 139.25 226.00 139.00
C 219.30 141.73 209.15 145.08 206.00 151.00
C 214.86 153.93 222.03 158.98 229.75 164.25 C 237.48 169.51 244.90 177.29 239.30 186.30 C 233.69 195.31 223.02 194.40 215.00 199.00 Z"/>
</g>
<g fill="None" fill-opacity="0.0" stroke="#D1D1D1" stroke-opacity="0.19" stroke-width="0.3"><path d="
M 231.00 140.00 
C 243.29 144.61 255.89 153.36 266.00 162.00
C 268.51 164.15 271.17 166.25 273.00 169.00
C 286.64 189.50 268.07 206.30 249.78 213.78 C 231.49 221.25 203.81 224.96 183.98 219.02 C 164.14 213.09 150.74 201.86 132.00 194.00
C 142.12 189.13 156.86 174.59 168.75 182.25 C 180.63 189.92 191.07 199.08 206.00 199.00
C 206.49 198.95 207.00 199.00 207.00 199.00
C 198.40 197.32 187.06 193.67 179.70 188.30 C 172.33 182.93 162.86 175.01 154.23 180.23 C 145.60 185.44 135.95 187.33 131.00 195.00
C 146.10 200.85 157.05 209.14 171.78 216.22 C 186.50 223.31 208.40 224.10 225.00 222.00 C 241.60 219.90 254.63 213.64 268.25 204.25 C 281.87 194.86 280.97 171.15 268.25 162.75 C 255.52 154.35 246.16 142.09 231.00 139.00
C 231.00 139.00 230.84 139.94 231.00 140.00 Z"/>
</g>
<g fill="None" fill-opacity="0.0" stroke="#000000" stroke-opacity="0.99" stroke-width="0.3"><path d="
M 216.00 199.00 
C 212.58 199.56 209.34 199.48 206.00 199.00
C 191.07 199.08 180.63 189.92 168.75 182.25 C 156.86 174.59 142.12 189.13 132.00 194.00
C 150.74 201.86 164.14 213.09 183.98 219.02 C 203.81 224.96 231.49 221.25 249.78 213.78 C 268.07 206.30 286.64 189.50 273.00 169.00
C 271.25 166.76 268.01 164.01 266.00 162.00
C 255.89 153.36 243.29 144.61 231.00 140.00
C 230.10 140.31 226.90 140.31 226.00 140.00
C 219.23 142.20 212.85 146.26 207.00 150.00
C 218.81 157.68 231.69 159.38 240.69 172.31 C 249.70 185.23 228.29 199.82 216.00 199.00 Z"/>
</g>
<g fill="None" fill-opacity="0.0" stroke="#D3D3D3" stroke-opacity="0.18" stroke-width="0.3"><path d="
M 282.00 181.00 
C 282.00 180.50 282.00 180.00 282.00 180.00
C 282.66 173.89 279.14 166.82 276.00 162.00
C 274.12 159.54 270.21 158.08 269.00 155.00
C 270.41 155.15 272.34 155.65 273.00 157.00
C 280.30 160.53 289.60 165.11 296.23 169.77 C 302.86 174.43 315.60 176.24 317.77 185.23 C 319.95 194.21 304.48 197.56 298.25 202.25 C 292.03 206.94 283.28 212.64 277.00 218.00
C 273.81 221.19 269.99 224.74 267.00 228.00
C 266.32 228.91 265.38 229.95 265.00 231.00
C 271.25 222.77 283.60 217.04 290.75 208.75 C 297.91 200.46 316.10 199.94 319.00 189.00 C 321.90 178.06 301.09 171.19 293.25 166.75 C 285.40 162.32 271.40 153.04 263.00 151.00
C 266.46 155.28 271.15 158.80 275.23 163.77 C 279.31 168.74 279.02 176.24 282.00 181.00 Z"/>
</g>
<g fill="None" fill-opacity="0.0" stroke="#D4D4D4" stroke-opacity="0.18" stroke-width="0.3"><path d="
M 206.00 154.00 
C 193.83 151.30 186.68 161.14 186.02 171.98 C 185.37 182.81 187.31 192.97 199.98 194.02 C 212.64 195.08 220.61 196.16 231.25 190.25 C 241.90 184.35 238.03 171.55 228.75 168.25 C 219.46 164.96 215.27 156.05 206.00 154.00
M 204.00 155.00 
C 215.49 156.25 220.83 165.34 232.08 170.92 C 243.33 176.51 230.94 193.60 219.99 192.99 C 209.04 192.38 190.16 196.04 188.00 183.00 C 185.85 169.96 188.72 153.33 204.00 155.00 Z"/>
</g>
<g fill="None" fill-opacity="0.0" stroke="#000000" stroke-opacity="0.98" stroke-width="0.3"><path d="
M 204.00 155.00 
C 188.72 153.33 185.85 169.96 188.00 183.00 C 190.16 196.04 209.04 192.38 219.99 192.99 C 230.94 193.60 243.33 176.51 232.08 170.92 C 220.83 165.34 215.49 156.25 204.00 155.00 Z"/>
</g>
<g fill="None" fill-opacity="0.0" stroke="#343434" stroke-opacity="0.74" stroke-width="0.3"><path d="
M 276.00 162.00 
C 275.37 161.03 272.58 156.58 273.00 157.00
C 272.34 155.65 270.41 155.15 269.00 155.00
C 270.21 158.08 274.12 159.54 276.00 162.00 Z"/>
</g>
<g fill="None" fill-opacity="0.0" stroke="#000000" stroke-opacity="0.98" stroke-width="0.3"><path d="
M 276.00 162.00 
C 279.14 166.82 282.66 173.89 282.00 180.00
C 282.50 183.47 282.87 186.50 282.00 190.00
C 281.56 203.76 268.52 211.42 256.92 217.92 C 245.33 224.43 226.61 225.73 212.00 227.00 C 197.39 228.27 179.94 223.11 166.32 219.68 C 152.71 216.25 144.44 204.06 132.00 200.00
C 119.56 198.93 123.30 214.17 123.00 223.00 C 122.70 231.83 123.22 245.71 123.00 255.00
C 124.26 254.92 123.56 252.94 125.00 253.00
C 125.00 253.00 124.95 252.50 125.00 252.00
C 126.51 235.84 151.94 223.85 165.00 231.00
C 165.00 231.00 165.50 230.99 166.00 231.00
C 174.71 231.18 187.34 240.74 194.00 246.00
C 197.29 248.60 200.53 251.68 203.00 255.00
C 206.92 260.27 211.60 265.89 214.00 272.00
C 214.00 272.00 213.83 272.57 214.00 273.00
C 220.24 276.90 220.77 287.69 223.78 294.22 C 226.78 300.75 228.41 312.56 229.00 320.00
C 229.21 322.63 229.00 325.36 229.00 328.00
C 229.67 334.88 229.40 343.23 229.00 350.00
C 229.16 354.70 229.20 359.71 235.00 360.00
C 252.78 360.37 267.66 341.13 283.00 335.00
C 280.26 334.97 277.92 336.63 275.00 336.00
C 270.97 336.65 266.98 336.71 263.00 336.00
C 251.39 335.72 240.26 323.38 240.00 312.00
C 240.00 312.00 240.00 311.50 240.00 311.00
C 238.68 309.63 239.08 307.97 239.00 306.00
C 238.34 301.47 238.57 296.41 239.00 292.00
C 239.00 290.01 238.89 287.98 239.00 286.00
C 239.97 269.23 250.47 242.16 265.00 232.00
C 265.00 232.00 264.84 231.44 265.00 231.00
C 265.38 229.95 266.32 228.91 267.00 228.00
C 269.83 224.25 273.50 220.99 277.00 218.00
C 283.28 212.64 292.03 206.94 298.25 202.25 C 304.48 197.56 319.95 194.21 317.77 185.23 C 315.60 176.24 302.86 174.43 296.23 169.77 C 289.60 165.11 280.30 160.53 273.00 157.00
C 272.58 156.58 275.37 161.03 276.00 162.00 Z"/>
</g>
<g fill="None" fill-opacity="0.0" stroke="#3E3E3E" stroke-opacity="0.73" stroke-width="0.3"><path d="
M 273.00 169.00 
C 271.17 166.25 268.51 164.15 266.00 162.00
C 268.01 164.01 271.25 166.76 273.00 169.00 Z"/>
</g>
<g fill="None" fill-opacity="0.0" stroke="#A8A8A8" stroke-opacity="0.34" stroke-width="0.3"><path d="
M 282.00 181.00 
C 282.00 183.33 282.00 185.67 282.00 188.00
C 282.00 188.50 282.02 189.50 282.00 190.00
C 282.87 186.50 282.50 183.47 282.00 180.00
C 282.00 180.00 282.00 180.50 282.00 181.00 Z"/>
</g>
<g fill="None" fill-opacity="0.0" stroke="#D1D1D1" stroke-opacity="0.18" stroke-width="0.3"><path d="
M 132.00 199.00 
C 132.24 199.18 132.00 200.00 132.00 200.00
C 144.44 204.06 152.71 216.25 166.32 219.68 C 179.94 223.11 197.39 228.27 212.00 227.00 C 226.61 225.73 245.33 224.43 256.92 217.92 C 268.52 211.42 281.56 203.76 282.00 190.00
C 282.02 189.50 282.00 188.50 282.00 188.00
C 280.65 196.69 274.73 203.52 267.75 209.75 C 260.76 215.97 252.84 218.62 243.67 221.67 C 234.50 224.72 222.29 225.12 212.00 226.00 C 201.71 226.88 189.01 224.12 179.67 222.33 C 170.33 220.53 161.59 215.37 153.25 212.75 C 144.90 210.14 140.18 199.02 132.00 199.00 Z"/>
</g>
<g fill="None" fill-opacity="0.0" stroke="#F3F3F3" stroke-opacity="0.04" stroke-width="0.3"><path d="
M 318.00 197.00 
C 319.35 196.25 320.27 194.76 322.00 195.00
C 322.00 200.67 322.00 206.33 322.00 212.00
C 322.00 212.50 322.00 213.50 322.00 214.00
C 322.56 208.23 326.89 191.25 318.00 197.00 Z"/>
</g>
<g fill="None" fill-opacity="0.0" stroke="#000000" stroke-opacity="0.99" stroke-width="0.3"><path d="
M 318.00 197.00 
C 305.30 204.03 290.50 212.92 279.00 222.00
C 275.77 224.99 271.94 228.82 269.00 232.00
C 262.83 239.81 259.07 246.33 254.23 255.23 C 249.39 264.13 247.00 274.15 244.22 284.22 C 241.45 294.29 243.70 308.01 247.77 317.23 C 251.84 326.45 262.57 332.72 272.00 332.00 C 281.43 331.28 292.93 326.07 299.75 320.75 C 306.56 315.42 319.43 312.48 322.00 304.00
C 323.34 299.59 322.00 292.64 322.00 288.00
C 320.36 285.37 322.31 282.63 319.00 283.00
C 308.38 290.40 288.37 310.54 275.25 297.75 C 262.12 284.96 274.23 261.77 284.25 250.25 C 294.26 238.73 319.84 237.01 321.00 220.00
C 321.18 217.37 321.81 213.94 322.00 212.00
C 322.00 206.33 322.00 200.67 322.00 195.00
C 320.27 194.76 319.35 196.25 318.00 197.00 Z"/>
</g>
<g fill="None" fill-opacity="0.0" stroke="#CFCFCF" stroke-opacity="0.19" stroke-width="0.3"><path d="
M 322.00 304.00 
C 319.43 312.48 306.56 315.42 299.75 320.75 C 292.93 326.07 281.43 331.28 272.00 332.00 C 262.57 332.72 251.84 326.45 247.77 317.23 C 243.70 308.01 241.45 294.29 244.22 284.22 C 247.00 274.15 249.39 264.13 254.23 255.23 C 259.07 246.33 262.83 239.81 269.00 232.00
C 271.89 228.34 275.39 224.85 279.00 222.00
C 290.50 212.92 305.30 204.03 318.00 197.00
C 304.52 205.73 290.69 211.49 277.75 221.75 C 264.80 232.00 259.16 244.73 251.26 259.26 C 243.35 273.79 241.21 295.05 244.22 311.78 C 247.24 328.51 271.51 339.24 284.31 330.31 C 297.10 321.37 317.41 319.12 322.00 304.00 Z"/>
</g>
<g fill="None" fill-opacity="0.0" stroke="#ACACAC" stroke-opacity="0.31" stroke-width="0.3"><path d="
M 125.00 253.00 
C 123.56 252.94 124.26 254.92 123.00 255.00
C 123.22 245.71 122.70 231.83 123.00 223.00 C 123.30 214.17 119.56 198.93 132.00 200.00
C 132.00 200.00 132.24 199.18 132.00 199.00
C 118.90 197.76 121.86 213.88 122.00 224.00 C 122.14 234.12 121.07 249.28 123.00 259.00
C 124.12 257.02 124.95 255.32 125.00 253.00 Z"/>
</g>
<g fill="None" fill-opacity="0.0" stroke="#8F8F8F" stroke-opacity="0.44" stroke-width="0.3"><path d="
M 216.00 199.00 
C 216.00 199.00 215.50 199.00 215.00 199.00
C 212.33 199.00 209.67 199.00 207.00 199.00
C 207.00 199.00 206.49 198.95 206.00 199.00
C 209.34 199.48 212.58 199.56 216.00 199.00 Z"/>
</g>
<g fill="None" fill-opacity="0.0" stroke="#838383" stroke-opacity="0.49" stroke-width="0.3"><path d="
M 321.00 220.00 
C 321.01 219.94 322.00 220.00 322.00 220.00
C 322.09 218.01 322.00 215.99 322.00 214.00
C 322.00 213.50 322.00 212.50 322.00 212.00
C 321.81 213.94 321.18 217.37 321.00 220.00 Z"/>
</g>
<g fill="None" fill-opacity="0.0" stroke="#525252" stroke-opacity="0.65" stroke-width="0.3"><path d="
M 267.00 228.00 
C 269.99 224.74 273.81 221.19 277.00 218.00
C 273.50 220.99 269.83 224.25 267.00 228.00 Z"/>
</g>
<g fill="None" fill-opacity="0.0" stroke="#D1D1D1" stroke-opacity="0.18" stroke-width="0.3"><path d="
M 319.00 283.00 
C 319.54 282.62 320.98 279.91 322.00 282.00
C 321.20 279.02 310.01 288.72 305.23 291.23 C 300.45 293.74 292.27 299.80 285.00 300.00 C 277.73 300.20 271.04 292.91 271.00 285.00 C 270.96 277.09 272.58 267.93 276.75 261.75 C 280.92 255.57 284.23 250.80 290.30 246.30 C 296.38 241.81 301.74 238.91 308.97 235.97 C 316.20 233.04 321.62 228.74 322.00 220.00
C 322.00 220.00 321.01 219.94 321.00 220.00
C 319.84 237.01 294.26 238.73 284.25 250.25 C 274.23 261.77 262.12 284.96 275.25 297.75 C 288.37 310.54 308.38 290.40 319.00 283.00 Z"/>
</g>
<g fill="None" fill-opacity="0.0" stroke="#3A3A3A" stroke-opacity="0.74" stroke-width="0.3"><path d="
M 269.00 232.00 
C 271.94 228.82 275.77 224.99 279.00 222.00
C 275.39 224.85 271.89 228.34 269.00 232.00 Z"/>
</g>
<g fill="None" fill-opacity="0.0" stroke="#D6D6D6" stroke-opacity="0.16" stroke-width="0.3"><path d="
M 125.00 252.00 
C 131.89 247.69 131.73 239.76 139.75 234.75 C 147.77 229.75 155.76 231.62 165.00 231.00
C 151.94 223.85 126.51 235.84 125.00 252.00 Z"/>
</g>
<g fill="None" fill-opacity="0.0" stroke="#D5D5D5" stroke-opacity="0.17" stroke-width="0.3"><path d="
M 214.00 272.00 
C 211.60 265.89 206.92 260.27 203.00 255.00
C 200.48 252.11 196.78 248.57 194.00 246.00
C 187.34 240.74 174.71 231.18 166.00 231.00
C 173.83 237.28 185.69 241.54 193.90 248.10 C 202.11 254.66 205.35 266.37 214.00 272.00 Z"/>
</g>
<g fill="None" fill-opacity="0.0" stroke="#C9C9C9" stroke-opacity="0.22" stroke-width="0.3"><path d="
M 239.00 286.00 
C 239.02 285.90 240.00 286.00 240.00 286.00
C 241.70 264.62 254.12 249.50 265.00 232.00
C 250.47 242.16 239.97 269.23 239.00 286.00 Z"/>
</g>
<g fill="None" fill-opacity="0.0" stroke="#D0D0D0" stroke-opacity="0.19" stroke-width="0.3"><path d="
M 150.00 235.00 
C 175.94 235.01 190.42 251.64 206.75 271.25 C 223.09 290.85 223.49 322.48 224.00 348.00
C 224.00 348.04 225.00 348.00 225.00 348.00
C 225.00 330.47 225.37 305.46 218.31 290.69 C 211.24 275.93 204.31 262.19 192.23 252.77 C 180.15 243.35 164.59 228.63 150.00 235.00 Z"/>
</g>
<g fill="None" fill-opacity="0.0" stroke="#D4D4D4" stroke-opacity="0.18" stroke-width="0.3"><path d="
M 128.00 264.00 
C 128.05 263.85 129.00 264.00 129.00 264.00
C 129.61 248.94 136.57 241.50 149.00 235.00
C 135.09 233.75 128.07 253.39 128.00 264.00 Z"/>
</g>
<g fill="None" fill-opacity="0.0" stroke="#000000" stroke-opacity="0.99" stroke-width="0.3"><path d="
M 129.00 264.00 
C 128.90 266.37 128.16 269.33 128.00 271.00
C 128.00 289.81 126.18 310.21 149.00 315.00
C 149.00 311.33 149.00 307.67 149.00 304.00
C 148.70 300.86 148.70 297.08 149.00 294.00
C 149.00 285.71 148.71 276.03 156.08 271.08 C 163.45 266.13 172.05 268.37 179.00 273.00
C 181.76 274.83 184.01 277.48 186.00 280.00
C 192.43 288.14 197.28 299.46 197.00 310.00
C 197.82 315.74 197.55 322.36 197.00 328.00
C 197.00 331.33 197.00 334.67 197.00 338.00
C 197.00 338.00 197.02 338.50 197.00 339.00
C 204.33 348.14 214.81 353.93 225.00 360.00
C 225.00 358.33 225.00 356.67 225.00 355.00
C 223.37 353.43 224.05 350.29 224.00 348.00
C 223.49 322.48 223.09 290.85 206.75 271.25 C 190.42 251.64 175.94 235.01 150.00 235.00
C 150.00 235.00 149.50 235.04 149.00 235.00
C 136.57 241.50 129.61 248.94 129.00 264.00 Z"/>
</g>
<g fill="None" fill-opacity="0.0" stroke="#373737" stroke-opacity="0.75" stroke-width="0.3"><path d="
M 203.00 255.00 
C 200.53 251.68 197.29 248.60 194.00 246.00
C 196.78 248.57 200.48 252.11 203.00 255.00 Z"/>
</g>
<g fill="None" fill-opacity="0.0" stroke="#CDCDCD" stroke-opacity="0.20" stroke-width="0.3"><path d="
M 302.00 247.00 
C 292.88 244.85 283.71 257.74 279.78 264.78 C 275.85 271.81 270.48 287.88 279.31 294.69 C 288.13 301.51 298.05 289.68 305.77 286.77 C 313.49 283.86 325.71 274.03 322.32 265.68 C 318.94 257.33 310.11 248.91 302.00 247.00
M 284.00 260.00 
C 286.25 256.97 289.10 254.29 292.00 252.00
C 302.21 243.94 308.49 252.57 317.75 260.25 C 327.01 267.93 316.20 281.53 307.30 284.31 C 298.41 287.08 287.09 301.29 278.75 292.25 C 270.42 283.21 278.34 267.61 284.00 260.00 Z"/>
</g>
<g fill="None" fill-opacity="0.0" stroke="#000000" stroke-opacity="0.99" stroke-width="0.3"><path d="
M 292.00 252.00 
C 289.51 254.30 286.17 257.51 284.00 260.00
C 278.34 267.61 270.42 283.21 278.75 292.25 C 287.09 301.29 298.41 287.08 307.30 284.31 C 316.20 281.53 327.01 267.93 317.75 260.25 C 308.49 252.57 302.21 243.94 292.00 252.00 Z"/>
</g>
<g fill="None" fill-opacity="0.0" stroke="#353535" stroke-opacity="0.76" stroke-width="0.3"><path d="
M 284.00 260.00 
C 286.17 257.51 289.51 254.30 292.00 252.00
C 289.10 254.29 286.25 256.97 284.00 260.00 Z"/>
</g>
<g fill="None" fill-opacity="0.0" stroke="#989898" stroke-opacity="0.40" stroke-width="0.3"><path d="
M 128.00 269.00 
C 128.00 269.50 128.00 270.50 128.00 271.00
C 128.16 269.33 128.90 266.37 129.00 264.00
C 129.00 264.00 128.05 263.85 128.00 264.00
C 127.99 265.67 128.00 267.33 128.00 269.00 Z"/>
</g>
<g fill="None" fill-opacity="0.0" stroke="#DDDDDD" stroke-opacity="0.14" stroke-width="0.3"><path d="
M 149.00 294.00 
C 149.00 297.33 149.00 300.67 149.00 304.00
C 149.00 307.67 149.00 311.33 149.00 315.00
C 126.18 310.21 128.00 289.81 128.00 271.00
C 128.00 270.50 128.00 269.50 128.00 269.00
C 127.28 277.68 124.63 294.82 129.08 302.92 C 133.54 311.02 143.90 314.26 151.00 315.00
C 151.09 302.41 146.30 285.96 153.30 274.30 C 160.29 262.64 175.45 273.33 183.00 278.00
C 181.87 276.55 180.37 274.07 179.00 273.00
C 172.05 268.37 163.45 266.13 156.08 271.08 C 148.71 276.03 149.00 285.71 149.00 294.00 Z"/>
</g>
<g fill="None" fill-opacity="0.0" stroke="#C7C7C7" stroke-opacity="0.21" stroke-width="0.3"><path d="
M 170.00 273.00 
C 156.66 269.69 152.26 282.39 154.00 293.00 C 155.74 303.61 149.93 316.66 160.25 322.75 C 170.58 328.83 177.65 322.15 186.75 317.75 C 195.86 313.35 191.30 297.87 187.32 291.68 C 183.35 285.48 177.68 274.90 170.00 273.00
M 174.00 277.00 
C 177.10 279.06 179.76 282.16 182.00 285.00
C 188.52 293.26 191.87 303.20 191.00 314.00
C 180.95 317.27 175.40 328.26 162.93 323.07 C 150.45 317.88 157.20 303.05 155.00 292.00 C 152.80 280.95 162.23 267.27 174.00 277.00 Z"/>
</g>
<g fill="None" fill-opacity="0.0" stroke="#7D7D7D" stroke-opacity="0.49" stroke-width="0.3"><path d="
M 183.00 278.00 
C 183.32 278.20 183.79 278.70 184.00 279.00
C 184.21 279.48 185.67 279.72 186.00 280.00
C 184.01 277.48 181.76 274.83 179.00 273.00
C 180.37 274.07 181.87 276.55 183.00 278.00 Z"/>
</g>
<g fill="None" fill-opacity="0.0" stroke="#C5C5C5" stroke-opacity="0.23" stroke-width="0.3"><path d="
M 228.00 320.00 
C 228.11 320.21 229.00 320.00 229.00 320.00
C 228.41 312.56 226.78 300.75 223.78 294.22 C 220.77 287.69 220.24 276.90 214.00 273.00
C 220.03 288.12 226.52 303.14 228.00 320.00 Z"/>
</g>
<g fill="None" fill-opacity="0.0" stroke="#000000" stroke-opacity="0.99" stroke-width="0.3"><path d="
M 182.00 285.00 
C 179.81 282.63 176.44 278.91 174.00 277.00
C 162.23 267.27 152.80 280.95 155.00 292.00 C 157.20 303.05 150.45 317.88 162.93 323.07 C 175.40 328.26 180.95 317.27 191.00 314.00
C 191.87 303.20 188.52 293.26 182.00 285.00 Z"/>
</g>
<g fill="None" fill-opacity="0.0" stroke="#474747" stroke-opacity="0.69" stroke-width="0.3"><path d="
M 182.00 285.00 
C 179.76 282.16 177.10 279.06 174.00 277.00
C 176.44 278.91 179.81 282.63 182.00 285.00 Z"/>
</g>
<g fill="None" fill-opacity="0.0" stroke="#CCCCCC" stroke-opacity="0.19" stroke-width="0.3"><path d="
M 197.00 313.00 
C 197.00 312.00 196.97 311.00 197.00 310.00
C 197.28 299.46 192.43 288.14 186.00 280.00
C 185.67 279.72 184.21 279.48 184.00 279.00
C 191.19 289.21 195.82 300.80 197.00 313.00 Z"/>
</g>
<g fill="None" fill-opacity="0.0" stroke="#7A7A7A" stroke-opacity="0.50" stroke-width="0.3"><path d="
M 319.00 283.00 
C 322.31 282.63 320.36 285.37 322.00 288.00
C 322.00 287.50 322.00 287.00 322.00 287.00
C 322.00 285.78 322.52 283.07 322.00 282.00
C 320.98 279.91 319.54 282.62 319.00 283.00 Z"/>
</g>
<g fill="None" fill-opacity="0.0" stroke="#EFEFEF" stroke-opacity="0.07" stroke-width="0.3"><path d="
M 239.00 292.00 
C 239.00 296.65 238.81 301.35 239.00 306.00
C 239.08 307.97 238.68 309.63 240.00 311.00
C 240.00 302.76 239.35 294.21 240.00 286.00
C 240.00 286.00 239.02 285.90 239.00 286.00
C 238.89 287.98 239.00 290.01 239.00 292.00 Z"/>
</g>
<g fill="None" fill-opacity="0.0" stroke="#EEEEEE" stroke-opacity="0.05" stroke-width="0.3"><path d="
M 322.00 288.00 
C 322.00 292.64 323.34 299.59 322.00 304.00
C 323.61 298.68 322.56 292.30 322.00 287.00
C 322.00 287.00 322.00 287.50 322.00 288.00 Z"/>
</g>
<g fill="None" fill-opacity="0.0" stroke="#808080" stroke-opacity="0.49" stroke-width="0.3"><path d="
M 239.00 306.00 
C 238.81 301.35 239.00 296.65 239.00 292.00
C 238.57 296.41 238.34 301.47 239.00 306.00 Z"/>
</g>
<g fill="None" fill-opacity="0.0" stroke="#5E5E5E" stroke-opacity="0.62" stroke-width="0.3"><path d="
M 149.00 304.00 
C 149.00 300.67 149.00 297.33 149.00 294.00
C 148.70 297.08 148.70 300.86 149.00 304.00 Z"/>
</g>
<g fill="None" fill-opacity="0.0" stroke="#323232" stroke-opacity="0.84" stroke-width="0.3"><path d="
M 197.00 313.00 
C 197.00 316.67 197.00 320.33 197.00 324.00
C 197.00 325.33 197.00 326.67 197.00 328.00
C 197.55 322.36 197.82 315.74 197.00 310.00
C 196.97 311.00 197.00 312.00 197.00 313.00 Z"/>
</g>
<g fill="None" fill-opacity="0.0" stroke="#D2D2D2" stroke-opacity="0.17" stroke-width="0.3"><path d="
M 263.00 336.00 
C 263.50 336.01 264.00 336.00 264.00 336.00
C 259.42 332.63 252.88 332.46 248.25 327.75 C 243.62 323.04 243.64 316.49 240.00 312.00
C 240.26 323.38 251.39 335.72 263.00 336.00 Z"/>
</g>
<g fill="None" fill-opacity="0.0" stroke="#EFEFEF" stroke-opacity="0.05" stroke-width="0.3"><path d="
M 229.00 335.00 
C 229.00 332.67 229.00 330.33 229.00 328.00
C 229.00 325.36 229.21 322.63 229.00 320.00
C 229.00 320.00 228.11 320.21 228.00 320.00
C 228.43 324.88 228.59 330.72 229.00 335.00 Z"/>
</g>
<g fill="None" fill-opacity="0.0" stroke="#DADADA" stroke-opacity="0.11" stroke-width="0.3"><path d="
M 197.00 338.00 
C 197.00 334.67 197.00 331.33 197.00 328.00
C 197.00 326.67 197.00 325.33 197.00 324.00
C 196.65 327.58 194.34 334.41 197.00 338.00 Z"/>
</g>
<g fill="None" fill-opacity="0.0" stroke="#959595" stroke-opacity="0.41" stroke-width="0.3"><path d="
M 229.00 335.00 
C 229.00 337.67 229.00 340.33 229.00 343.00
C 229.00 345.33 228.92 347.67 229.00 350.00
C 229.40 343.23 229.67 334.88 229.00 328.00
C 229.00 330.33 229.00 332.67 229.00 335.00 Z"/>
</g>
<g fill="None" fill-opacity="0.0" stroke="#CCCCCC" stroke-opacity="0.20" stroke-width="0.3"><path d="
M 273.00 336.00 
C 273.50 336.00 274.50 335.98 275.00 336.00
C 277.92 336.63 280.26 334.97 283.00 335.00
C 267.66 341.13 252.78 360.37 235.00 360.00
C 235.03 360.00 235.00 361.00 235.00 361.00
C 244.82 362.48 253.58 353.49 262.25 349.25 C 270.93 345.02 278.91 338.92 287.00 334.00
C 283.24 331.99 276.95 335.44 273.00 336.00 Z"/>
</g>
<g fill="None" fill-opacity="0.0" stroke="#959595" stroke-opacity="0.38" stroke-width="0.3"><path d="
M 275.00 336.00 
C 274.50 335.98 273.50 336.00 273.00 336.00
C 270.00 336.00 267.00 336.00 264.00 336.00
C 264.00 336.00 263.50 336.01 263.00 336.00
C 266.98 336.71 270.97 336.65 275.00 336.00 Z"/>
</g>
<g fill="None" fill-opacity="0.0" stroke="#CECECE" stroke-opacity="0.19" stroke-width="0.3"><path d="
M 225.00 354.00 
C 225.00 354.50 225.00 355.00 225.00 355.00
C 225.00 356.67 225.00 358.33 225.00 360.00
C 214.81 353.93 204.33 348.14 197.00 339.00
C 201.86 350.26 215.98 355.42 226.00 361.00
C 226.94 358.67 225.16 355.63 225.00 354.00 Z"/>
</g>
<g fill="None" fill-opacity="0.0" stroke="#F4F4F4" stroke-opacity="0.05" stroke-width="0.3"><path d="
M 235.00 361.00 
C 235.00 361.00 235.03 360.00 235.00 360.00
C 229.20 359.71 229.16 354.70 229.00 350.00
C 228.92 347.67 229.00 345.33 229.00 343.00
C 228.60 347.17 225.45 362.18 235.00 361.00 Z"/>
</g>
<g fill="None" fill-opacity="0.0" stroke="#727272" stroke-opacity="0.56" stroke-width="0.3"><path d="
M 225.00 355.00 
C 225.00 355.00 225.00 354.50 225.00 354.00
C 225.00 352.00 225.00 350.00 225.00 348.00
C 225.00 348.00 224.00 348.04 224.00 348.00
C 224.05 350.29 223.37 353.43 225.00 355.00 Z"/>
</g>
<g fill="#000000" fill-opacity="0.00" stroke="None">
<path d="
M 0.00 500.00 
L 500.00 500.00
L 500.00 0.00
L 0.00 0.00
L 0.00 500.00
M 231.00 139.00 
C 246.16 142.09 255.52 154.35 268.25 162.75 C 280.97 171.15 281.87 194.86 268.25 204.25 C 254.63 213.64 241.60 219.90 225.00 222.00 C 208.40 224.10 186.50 223.31 171.78 216.22 C 157.05 209.14 146.10 200.85 131.00 195.00
C 135.95 187.33 145.60 185.44 154.23 180.23 C 162.86 175.01 172.33 182.93 179.70 188.30 C 187.06 193.67 198.40 197.32 207.00 199.00
C 209.67 199.00 212.33 199.00 215.00 199.00
C 223.02 194.40 233.69 195.31 239.30 186.30 C 244.90 177.29 237.48 169.51 229.75 164.25 C 222.03 158.98 214.86 153.93 206.00 151.00
C 209.15 145.08 219.30 141.73 226.00 139.00
C 227.82 137.21 229.15 138.62 231.00 139.00
M 265.00 231.00 
C 264.84 231.44 265.00 232.00 265.00 232.00
C 254.12 249.50 241.70 264.62 240.00 286.00
C 239.35 294.21 240.00 302.76 240.00 311.00
C 240.00 311.50 240.00 312.00 240.00 312.00
C 243.64 316.49 243.62 323.04 248.25 327.75 C 252.88 332.46 259.42 332.63 264.00 336.00
C 267.00 336.00 270.00 336.00 273.00 336.00
C 276.95 335.44 283.24 331.99 287.00 334.00
C 278.91 338.92 270.93 345.02 262.25 349.25 C 253.58 353.49 244.82 362.48 235.00 361.00
C 225.45 362.18 228.60 347.17 229.00 343.00
C 229.00 340.33 229.00 337.67 229.00 335.00
C 228.59 330.72 228.43 324.88 228.00 320.00
C 226.52 303.14 220.03 288.12 214.00 273.00
C 213.83 272.57 214.00 272.00 214.00 272.00
C 205.35 266.37 202.11 254.66 193.90 248.10 C 185.69 241.54 173.83 237.28 166.00 231.00
C 165.50 230.99 165.00 231.00 165.00 231.00
C 155.76 231.62 147.77 229.75 139.75 234.75 C 131.73 239.76 131.89 247.69 125.00 252.00
C 124.95 252.50 125.00 253.00 125.00 253.00
C 124.95 255.32 124.12 257.02 123.00 259.00
C 121.07 249.28 122.14 234.12 122.00 224.00 C 121.86 213.88 118.90 197.76 132.00 199.00
C 140.18 199.02 144.90 210.14 153.25 212.75 C 161.59 215.37 170.33 220.53 179.67 222.33 C 189.01 224.12 201.71 226.88 212.00 226.00 C 222.29 225.12 234.50 224.72 243.67 221.67 C 252.84 218.62 260.76 215.97 267.75 209.75 C 274.73 203.52 280.65 196.69 282.00 188.00
C 282.00 185.67 282.00 183.33 282.00 181.00
C 279.02 176.24 279.31 168.74 275.23 163.77 C 271.15 158.80 266.46 155.28 263.00 151.00
C 271.40 153.04 285.40 162.32 293.25 166.75 C 301.09 171.19 321.90 178.06 319.00 189.00 C 316.10 199.94 297.91 200.46 290.75 208.75 C 283.60 217.04 271.25 222.77 265.00 231.00
M 206.00 154.00 
C 215.27 156.05 219.46 164.96 228.75 168.25 C 238.03 171.55 241.90 184.35 231.25 190.25 C 220.61 196.16 212.64 195.08 199.98 194.02 C 187.31 192.97 185.37 182.81 186.02 171.98 C 186.68 161.14 193.83 151.30 206.00 154.00
M 322.00 214.00 
C 322.00 215.99 322.09 218.01 322.00 220.00
C 321.62 228.74 316.20 233.04 308.97 235.97 C 301.74 238.91 296.38 241.81 290.30 246.30 C 284.23 250.80 280.92 255.57 276.75 261.75 C 272.58 267.93 270.96 277.09 271.00 285.00 C 271.04 292.91 277.73 300.20 285.00 300.00 C 292.27 299.80 300.45 293.74 305.23 291.23 C 310.01 288.72 321.20 279.02 322.00 282.00
C 322.52 283.07 322.00 285.78 322.00 287.00
C 322.56 292.30 323.61 298.68 322.00 304.00
C 317.41 319.12 297.10 321.37 284.31 330.31 C 271.51 339.24 247.24 328.51 244.22 311.78 C 241.21 295.05 243.35 273.79 251.26 259.26 C 259.16 244.73 264.80 232.00 277.75 221.75 C 290.69 211.49 304.52 205.73 318.00 197.00
C 326.89 191.25 322.56 208.23 322.00 214.00
M 225.00 348.00 
C 225.00 350.00 225.00 352.00 225.00 354.00
C 225.16 355.63 226.94 358.67 226.00 361.00
C 215.98 355.42 201.86 350.26 197.00 339.00
C 197.02 338.50 197.00 338.00 197.00 338.00
C 194.34 334.41 196.65 327.58 197.00 324.00
C 197.00 320.33 197.00 316.67 197.00 313.00
C 195.82 300.80 191.19 289.21 184.00 279.00
C 183.79 278.70 183.32 278.20 183.00 278.00
C 175.45 273.33 160.29 262.64 153.30 274.30 C 146.30 285.96 151.09 302.41 151.00 315.00
C 143.90 314.26 133.54 311.02 129.08 302.92 C 124.63 294.82 127.28 277.68 128.00 269.00
C 128.00 267.33 127.99 265.67 128.00 264.00
C 128.07 253.39 135.09 233.75 149.00 235.00
C 149.50 235.04 150.00 235.00 150.00 235.00
C 164.59 228.63 180.15 243.35 192.23 252.77 C 204.31 262.19 211.24 275.93 218.31 290.69 C 225.37 305.46 225.00 330.47 225.00 348.00
M 302.00 247.00 
C 310.11 248.91 318.94 257.33 322.32 265.68 C 325.71 274.03 313.49 283.86 305.77 286.77 C 298.05 289.68 288.13 301.51 279.31 294.69 C 270.48 287.88 275.85 271.81 279.78 264.78 C 283.71 257.74 292.88 244.85 302.00 247.00
M 170.00 273.00 
C 177.68 274.90 183.35 285.48 187.32 291.68 C 191.30 297.87 195.86 313.35 186.75 317.75 C 177.65 322.15 170.58 328.83 160.25 322.75 C 149.93 316.66 155.74 303.61 154.00 293.00 C 152.26 282.39 156.66 269.69 170.00 273.00 Z"/>
</g>
<g fill="#A4A4A4" fill-opacity="0.36" stroke="None">
<path d="
M 226.00 139.00 
C 225.75 139.25 226.00 140.00 226.00 140.00
C 226.90 140.31 230.10 140.31 231.00 140.00
C 230.84 139.94 231.00 139.00 231.00 139.00
C 229.15 138.62 227.82 137.21 226.00 139.00 Z"/>
</g>
<g fill="#D2D2D2" fill-opacity="0.18" stroke="None">
<path d="
M 215.00 199.00 
C 215.50 199.00 216.00 199.00 216.00 199.00
C 228.29 199.82 249.70 185.23 240.69 172.31 C 231.69 159.38 218.81 157.68 207.00 150.00
C 212.85 146.26 219.23 142.20 226.00 140.00
C 226.00 140.00 225.75 139.25 226.00 139.00
C 219.30 141.73 209.15 145.08 206.00 151.00
C 214.86 153.93 222.03 158.98 229.75 164.25 C 237.48 169.51 244.90 177.29 239.30 186.30 C 233.69 195.31 223.02 194.40 215.00 199.00 Z"/>
</g>
<g fill="#D1D1D1" fill-opacity="0.19" stroke="None">
<path d="
M 231.00 140.00 
C 243.29 144.61 255.89 153.36 266.00 162.00
C 268.51 164.15 271.17 166.25 273.00 169.00
C 286.64 189.50 268.07 206.30 249.78 213.78 C 231.49 221.25 203.81 224.96 183.98 219.02 C 164.14 213.09 150.74 201.86 132.00 194.00
C 142.12 189.13 156.86 174.59 168.75 182.25 C 180.63 189.92 191.07 199.08 206.00 199.00
C 206.49 198.95 207.00 199.00 207.00 199.00
C 198.40 197.32 187.06 193.67 179.70 188.30 C 172.33 182.93 162.86 175.01 154.23 180.23 C 145.60 185.44 135.95 187.33 131.00 195.00
C 146.10 200.85 157.05 209.14 171.78 216.22 C 186.50 223.31 208.40 224.10 225.00 222.00 C 241.60 219.90 254.63 213.64 268.25 204.25 C 281.87 194.86 280.97 171.15 268.25 162.75 C 255.52 154.35 246.16 142.09 231.00 139.00
C 231.00 139.00 230.84 139.94 231.00 140.00 Z"/>
</g>
<g fill="#000000" fill-opacity="0.99" stroke="None">
<path d="
M 216.00 199.00 
C 212.58 199.56 209.34 199.48 206.00 199.00
C 191.07 199.08 180.63 189.92 168.75 182.25 C 156.86 174.59 142.12 189.13 132.00 194.00
C 150.74 201.86 164.14 213.09 183.98 219.02 C 203.81 224.96 231.49 221.25 249.78 213.78 C 268.07 206.30 286.64 189.50 273.00 169.00
C 271.25 166.76 268.01 164.01 266.00 162.00
C 255.89 153.36 243.29 144.61 231.00 140.00
C 230.10 140.31 226.90 140.31 226.00 140.00
C 219.23 142.20 212.85 146.26 207.00 150.00
C 218.81 157.68 231.69 159.38 240.69 172.31 C 249.70 185.23 228.29 199.82 216.00 199.00 Z"/>
</g>
<g fill="#D3D3D3" fill-opacity="0.18" stroke="None">
<path d="
M 282.00 181.00 
C 282.00 180.50 282.00 180.00 282.00 180.00
C 282.66 173.89 279.14 166.82 276.00 162.00
C 274.12 159.54 270.21 158.08 269.00 155.00
C 270.41 155.15 272.34 155.65 273.00 157.00
C 280.30 160.53 289.60 165.11 296.23 169.77 C 302.86 174.43 315.60 176.24 317.77 185.23 C 319.95 194.21 304.48 197.56 298.25 202.25 C 292.03 206.94 283.28 212.64 277.00 218.00
C 273.81 221.19 269.99 224.74 267.00 228.00
C 266.32 228.91 265.38 229.95 265.00 231.00
C 271.25 222.77 283.60 217.04 290.75 208.75 C 297.91 200.46 316.10 199.94 319.00 189.00 C 321.90 178.06 301.09 171.19 293.25 166.75 C 285.40 162.32 271.40 153.04 263.00 151.00
C 266.46 155.28 271.15 158.80 275.23 163.77 C 279.31 168.74 279.02 176.24 282.00 181.00 Z"/>
</g>
<g fill="#D4D4D4" fill-opacity="0.18" stroke="None">
<path d="
M 206.00 154.00 
C 193.83 151.30 186.68 161.14 186.02 171.98 C 185.37 182.81 187.31 192.97 199.98 194.02 C 212.64 195.08 220.61 196.16 231.25 190.25 C 241.90 184.35 238.03 171.55 228.75 168.25 C 219.46 164.96 215.27 156.05 206.00 154.00
M 204.00 155.00 
C 215.49 156.25 220.83 165.34 232.08 170.92 C 243.33 176.51 230.94 193.60 219.99 192.99 C 209.04 192.38 190.16 196.04 188.00 183.00 C 185.85 169.96 188.72 153.33 204.00 155.00 Z"/>
</g>
<g fill="#000000" fill-opacity="0.98" stroke="None">
<path d="
M 204.00 155.00 
C 188.72 153.33 185.85 169.96 188.00 183.00 C 190.16 196.04 209.04 192.38 219.99 192.99 C 230.94 193.60 243.33 176.51 232.08 170.92 C 220.83 165.34 215.49 156.25 204.00 155.00 Z"/>
</g>
<g fill="#343434" fill-opacity="0.74" stroke="None">
<path d="
M 276.00 162.00 
C 275.37 161.03 272.58 156.58 273.00 157.00
C 272.34 155.65 270.41 155.15 269.00 155.00
C 270.21 158.08 274.12 159.54 276.00 162.00 Z"/>
</g>
<g fill="#000000" fill-opacity="0.98" stroke="None">
<path d="
M 276.00 162.00 
C 279.14 166.82 282.66 173.89 282.00 180.00
C 282.50 183.47 282.87 186.50 282.00 190.00
C 281.56 203.76 268.52 211.42 256.92 217.92 C 245.33 224.43 226.61 225.73 212.00 227.00 C 197.39 228.27 179.94 223.11 166.32 219.68 C 152.71 216.25 144.44 204.06 132.00 200.00
C 119.56 198.93 123.30 214.17 123.00 223.00 C 122.70 231.83 123.22 245.71 123.00 255.00
C 124.26 254.92 123.56 252.94 125.00 253.00
C 125.00 253.00 124.95 252.50 125.00 252.00
C 126.51 235.84 151.94 223.85 165.00 231.00
C 165.00 231.00 165.50 230.99 166.00 231.00
C 174.71 231.18 187.34 240.74 194.00 246.00
C 197.29 248.60 200.53 251.68 203.00 255.00
C 206.92 260.27 211.60 265.89 214.00 272.00
C 214.00 272.00 213.83 272.57 214.00 273.00
C 220.24 276.90 220.77 287.69 223.78 294.22 C 226.78 300.75 228.41 312.56 229.00 320.00
C 229.21 322.63 229.00 325.36 229.00 328.00
C 229.67 334.88 229.40 343.23 229.00 350.00
C 229.16 354.70 229.20 359.71 235.00 360.00
C 252.78 360.37 267.66 341.13 283.00 335.00
C 280.26 334.97 277.92 336.63 275.00 336.00
C 270.97 336.65 266.98 336.71 263.00 336.00
C 251.39 335.72 240.26 323.38 240.00 312.00
C 240.00 312.00 240.00 311.50 240.00 311.00
C 238.68 309.63 239.08 307.97 239.00 306.00
C 238.34 301.47 238.57 296.41 239.00 292.00
C 239.00 290.01 238.89 287.98 239.00 286.00
C 239.97 269.23 250.47 242.16 265.00 232.00
C 265.00 232.00 264.84 231.44 265.00 231.00
C 265.38 229.95 266.32 228.91 267.00 228.00
C 269.83 224.25 273.50 220.99 277.00 218.00
C 283.28 212.64 292.03 206.94 298.25 202.25 C 304.48 197.56 319.95 194.21 317.77 185.23 C 315.60 176.24 302.86 174.43 296.23 169.77 C 289.60 165.11 280.30 160.53 273.00 157.00
C 272.58 156.58 275.37 161.03 276.00 162.00 Z"/>
</g>
<g fill="#3E3E3E" fill-opacity="0.73" stroke="None">
<path d="
M 273.00 169.00 
C 271.17 166.25 268.51 164.15 266.00 162.00
C 268.01 164.01 271.25 166.76 273.00 169.00 Z"/>
</g>
<g fill="#A8A8A8" fill-opacity="0.34" stroke="None">
<path d="
M 282.00 181.00 
C 282.00 183.33 282.00 185.67 282.00 188.00
C 282.00 188.50 282.02 189.50 282.00 190.00
C 282.87 186.50 282.50 183.47 282.00 180.00
C 282.00 180.00 282.00 180.50 282.00 181.00 Z"/>
</g>
<g fill="#D1D1D1" fill-opacity="0.18" stroke="None">
<path d="
M 132.00 199.00 
C 132.24 199.18 132.00 200.00 132.00 200.00
C 144.44 204.06 152.71 216.25 166.32 219.68 C 179.94 223.11 197.39 228.27 212.00 227.00 C 226.61 225.73 245.33 224.43 256.92 217.92 C 268.52 211.42 281.56 203.76 282.00 190.00
C 282.02 189.50 282.00 188.50 282.00 188.00
C 280.65 196.69 274.73 203.52 267.75 209.75 C 260.76 215.97 252.84 218.62 243.67 221.67 C 234.50 224.72 222.29 225.12 212.00 226.00 C 201.71 226.88 189.01 224.12 179.67 222.33 C 170.33 220.53 161.59 215.37 153.25 212.75 C 144.90 210.14 140.18 199.02 132.00 199.00 Z"/>
</g>
<g fill="#F3F3F3" fill-opacity="0.04" stroke="None">
<path d="
M 318.00 197.00 
C 319.35 196.25 320.27 194.76 322.00 195.00
C 322.00 200.67 322.00 206.33 322.00 212.00
C 322.00 212.50 322.00 213.50 322.00 214.00
C 322.56 208.23 326.89 191.25 318.00 197.00 Z"/>
</g>
<g fill="#000000" fill-opacity="0.99" stroke="None">
<path d="
M 318.00 197.00 
C 305.30 204.03 290.50 212.92 279.00 222.00
C 275.77 224.99 271.94 228.82 269.00 232.00
C 262.83 239.81 259.07 246.33 254.23 255.23 C 249.39 264.13 247.00 274.15 244.22 284.22 C 241.45 294.29 243.70 308.01 247.77 317.23 C 251.84 326.45 262.57 332.72 272.00 332.00 C 281.43 331.28 292.93 326.07 299.75 320.75 C 306.56 315.42 319.43 312.48 322.00 304.00
C 323.34 299.59 322.00 292.64 322.00 288.00
C 320.36 285.37 322.31 282.63 319.00 283.00
C 308.38 290.40 288.37 310.54 275.25 297.75 C 262.12 284.96 274.23 261.77 284.25 250.25 C 294.26 238.73 319.84 237.01 321.00 220.00
C 321.18 217.37 321.81 213.94 322.00 212.00
C 322.00 206.33 322.00 200.67 322.00 195.00
C 320.27 194.76 319.35 196.25 318.00 197.00 Z"/>
</g>
<g fill="#CFCFCF" fill-opacity="0.19" stroke="None">
<path d="
M 322.00 304.00 
C 319.43 312.48 306.56 315.42 299.75 320.75 C 292.93 326.07 281.43 331.28 272.00 332.00 C 262.57 332.72 251.84 326.45 247.77 317.23 C 243.70 308.01 241.45 294.29 244.22 284.22 C 247.00 274.15 249.39 264.13 254.23 255.23 C 259.07 246.33 262.83 239.81 269.00 232.00
C 271.89 228.34 275.39 224.85 279.00 222.00
C 290.50 212.92 305.30 204.03 318.00 197.00
C 304.52 205.73 290.69 211.49 277.75 221.75 C 264.80 232.00 259.16 244.73 251.26 259.26 C 243.35 273.79 241.21 295.05 244.22 311.78 C 247.24 328.51 271.51 339.24 284.31 330.31 C 297.10 321.37 317.41 319.12 322.00 304.00 Z"/>
</g>
<g fill="#ACACAC" fill-opacity="0.31" stroke="None">
<path d="
M 125.00 253.00 
C 123.56 252.94 124.26 254.92 123.00 255.00
C 123.22 245.71 122.70 231.83 123.00 223.00 C 123.30 214.17 119.56 198.93 132.00 200.00
C 132.00 200.00 132.24 199.18 132.00 199.00
C 118.90 197.76 121.86 213.88 122.00 224.00 C 122.14 234.12 121.07 249.28 123.00 259.00
C 124.12 257.02 124.95 255.32 125.00 253.00 Z"/>
</g>
<g fill="#8F8F8F" fill-opacity="0.44" stroke="None">
<path d="
M 216.00 199.00 
C 216.00 199.00 215.50 199.00 215.00 199.00
C 212.33 199.00 209.67 199.00 207.00 199.00
C 207.00 199.00 206.49 198.95 206.00 199.00
C 209.34 199.48 212.58 199.56 216.00 199.00 Z"/>
</g>
<g fill="#838383" fill-opacity="0.49" stroke="None">
<path d="
M 321.00 220.00 
C 321.01 219.94 322.00 220.00 322.00 220.00
C 322.09 218.01 322.00 215.99 322.00 214.00
C 322.00 213.50 322.00 212.50 322.00 212.00
C 321.81 213.94 321.18 217.37 321.00 220.00 Z"/>
</g>
<g fill="#525252" fill-opacity="0.65" stroke="None">
<path d="
M 267.00 228.00 
C 269.99 224.74 273.81 221.19 277.00 218.00
C 273.50 220.99 269.83 224.25 267.00 228.00 Z"/>
</g>
<g fill="#D1D1D1" fill-opacity="0.18" stroke="None">
<path d="
M 319.00 283.00 
C 319.54 282.62 320.98 279.91 322.00 282.00
C 321.20 279.02 310.01 288.72 305.23 291.23 C 300.45 293.74 292.27 299.80 285.00 300.00 C 277.73 300.20 271.04 292.91 271.00 285.00 C 270.96 277.09 272.58 267.93 276.75 261.75 C 280.92 255.57 284.23 250.80 290.30 246.30 C 296.38 241.81 301.74 238.91 308.97 235.97 C 316.20 233.04 321.62 228.74 322.00 220.00
C 322.00 220.00 321.01 219.94 321.00 220.00
C 319.84 237.01 294.26 238.73 284.25 250.25 C 274.23 261.77 262.12 284.96 275.25 297.75 C 288.37 310.54 308.38 290.40 319.00 283.00 Z"/>
</g>
<g fill="#3A3A3A" fill-opacity="0.74" stroke="None">
<path d="
M 269.00 232.00 
C 271.94 228.82 275.77 224.99 279.00 222.00
C 275.39 224.85 271.89 228.34 269.00 232.00 Z"/>
</g>
<g fill="#D6D6D6" fill-opacity="0.16" stroke="None">
<path d="
M 125.00 252.00 
C 131.89 247.69 131.73 239.76 139.75 234.75 C 147.77 229.75 155.76 231.62 165.00 231.00
C 151.94 223.85 126.51 235.84 125.00 252.00 Z"/>
</g>
<g fill="#D5D5D5" fill-opacity="0.17" stroke="None">
<path d="
M 214.00 272.00 
C 211.60 265.89 206.92 260.27 203.00 255.00
C 200.48 252.11 196.78 248.57 194.00 246.00
C 187.34 240.74 174.71 231.18 166.00 231.00
C 173.83 237.28 185.69 241.54 193.90 248.10 C 202.11 254.66 205.35 266.37 214.00 272.00 Z"/>
</g>
<g fill="#C9C9C9" fill-opacity="0.22" stroke="None">
<path d="
M 239.00 286.00 
C 239.02 285.90 240.00 286.00 240.00 286.00
C 241.70 264.62 254.12 249.50 265.00 232.00
C 250.47 242.16 239.97 269.23 239.00 286.00 Z"/>
</g>
<g fill="#D0D0D0" fill-opacity="0.19" stroke="None">
<path d="
M 150.00 235.00 
C 175.94 235.01 190.42 251.64 206.75 271.25 C 223.09 290.85 223.49 322.48 224.00 348.00
C 224.00 348.04 225.00 348.00 225.00 348.00
C 225.00 330.47 225.37 305.46 218.31 290.69 C 211.24 275.93 204.31 262.19 192.23 252.77 C 180.15 243.35 164.59 228.63 150.00 235.00 Z"/>
</g>
<g fill="#D4D4D4" fill-opacity="0.18" stroke="None">
<path d="
M 128.00 264.00 
C 128.05 263.85 129.00 264.00 129.00 264.00
C 129.61 248.94 136.57 241.50 149.00 235.00
C 135.09 233.75 128.07 253.39 128.00 264.00 Z"/>
</g>
<g fill="#000000" fill-opacity="0.99" stroke="None">
<path d="
M 129.00 264.00 
C 128.90 266.37 128.16 269.33 128.00 271.00
C 128.00 289.81 126.18 310.21 149.00 315.00
C 149.00 311.33 149.00 307.67 149.00 304.00
C 148.70 300.86 148.70 297.08 149.00 294.00
C 149.00 285.71 148.71 276.03 156.08 271.08 C 163.45 266.13 172.05 268.37 179.00 273.00
C 181.76 274.83 184.01 277.48 186.00 280.00
C 192.43 288.14 197.28 299.46 197.00 310.00
C 197.82 315.74 197.55 322.36 197.00 328.00
C 197.00 331.33 197.00 334.67 197.00 338.00
C 197.00 338.00 197.02 338.50 197.00 339.00
C 204.33 348.14 214.81 353.93 225.00 360.00
C 225.00 358.33 225.00 356.67 225.00 355.00
C 223.37 353.43 224.05 350.29 224.00 348.00
C 223.49 322.48 223.09 290.85 206.75 271.25 C 190.42 251.64 175.94 235.01 150.00 235.00
C 150.00 235.00 149.50 235.04 149.00 235.00
C 136.57 241.50 129.61 248.94 129.00 264.00 Z"/>
</g>
<g fill="#373737" fill-opacity="0.75" stroke="None">
<path d="
M 203.00 255.00 
C 200.53 251.68 197.29 248.60 194.00 246.00
C 196.78 248.57 200.48 252.11 203.00 255.00 Z"/>
</g>
<g fill="#CDCDCD" fill-opacity="0.20" stroke="None">
<path d="
M 302.00 247.00 
C 292.88 244.85 283.71 257.74 279.78 264.78 C 275.85 271.81 270.48 287.88 279.31 294.69 C 288.13 301.51 298.05 289.68 305.77 286.77 C 313.49 283.86 325.71 274.03 322.32 265.68 C 318.94 257.33 310.11 248.91 302.00 247.00
M 284.00 260.00 
C 286.25 256.97 289.10 254.29 292.00 252.00
C 302.21 243.94 308.49 252.57 317.75 260.25 C 327.01 267.93 316.20 281.53 307.30 284.31 C 298.41 287.08 287.09 301.29 278.75 292.25 C 270.42 283.21 278.34 267.61 284.00 260.00 Z"/>
</g>
<g fill="#000000" fill-opacity="0.99" stroke="None">
<path d="
M 292.00 252.00 
C 289.51 254.30 286.17 257.51 284.00 260.00
C 278.34 267.61 270.42 283.21 278.75 292.25 C 287.09 301.29 298.41 287.08 307.30 284.31 C 316.20 281.53 327.01 267.93 317.75 260.25 C 308.49 252.57 302.21 243.94 292.00 252.00 Z"/>
</g>
<g fill="#353535" fill-opacity="0.76" stroke="None">
<path d="
M 284.00 260.00 
C 286.17 257.51 289.51 254.30 292.00 252.00
C 289.10 254.29 286.25 256.97 284.00 260.00 Z"/>
</g>
<g fill="#989898" fill-opacity="0.40" stroke="None">
<path d="
M 128.00 269.00 
C 128.00 269.50 128.00 270.50 128.00 271.00
C 128.16 269.33 128.90 266.37 129.00 264.00
C 129.00 264.00 128.05 263.85 128.00 264.00
C 127.99 265.67 128.00 267.33 128.00 269.00 Z"/>
</g>
<g fill="#DDDDDD" fill-opacity="0.14" stroke="None">
<path d="
M 149.00 294.00 
C 149.00 297.33 149.00 300.67 149.00 304.00
C 149.00 307.67 149.00 311.33 149.00 315.00
C 126.18 310.21 128.00 289.81 128.00 271.00
C 128.00 270.50 128.00 269.50 128.00 269.00
C 127.28 277.68 124.63 294.82 129.08 302.92 C 133.54 311.02 143.90 314.26 151.00 315.00
C 151.09 302.41 146.30 285.96 153.30 274.30 C 160.29 262.64 175.45 273.33 183.00 278.00
C 181.87 276.55 180.37 274.07 179.00 273.00
C 172.05 268.37 163.45 266.13 156.08 271.08 C 148.71 276.03 149.00 285.71 149.00 294.00 Z"/>
</g>
<g fill="#C7C7C7" fill-opacity="0.21" stroke="None">
<path d="
M 170.00 273.00 
C 156.66 269.69 152.26 282.39 154.00 293.00 C 155.74 303.61 149.93 316.66 160.25 322.75 C 170.58 328.83 177.65 322.15 186.75 317.75 C 195.86 313.35 191.30 297.87 187.32 291.68 C 183.35 285.48 177.68 274.90 170.00 273.00
M 174.00 277.00 
C 177.10 279.06 179.76 282.16 182.00 285.00
C 188.52 293.26 191.87 303.20 191.00 314.00
C 180.95 317.27 175.40 328.26 162.93 323.07 C 150.45 317.88 157.20 303.05 155.00 292.00 C 152.80 280.95 162.23 267.27 174.00 277.00 Z"/>
</g>
<g fill="#7D7D7D" fill-opacity="0.49" stroke="None">
<path d="
M 183.00 278.00 
C 183.32 278.20 183.79 278.70 184.00 279.00
C 184.21 279.48 185.67 279.72 186.00 280.00
C 184.01 277.48 181.76 274.83 179.00 273.00
C 180.37 274.07 181.87 276.55 183.00 278.00 Z"/>
</g>
<g fill="#C5C5C5" fill-opacity="0.23" stroke="None">
<path d="
M 228.00 320.00 
C 228.11 320.21 229.00 320.00 229.00 320.00
C 228.41 312.56 226.78 300.75 223.78 294.22 C 220.77 287.69 220.24 276.90 214.00 273.00
C 220.03 288.12 226.52 303.14 228.00 320.00 Z"/>
</g>
<g fill="#000000" fill-opacity="0.99" stroke="None">
<path d="
M 182.00 285.00 
C 179.81 282.63 176.44 278.91 174.00 277.00
C 162.23 267.27 152.80 280.95 155.00 292.00 C 157.20 303.05 150.45 317.88 162.93 323.07 C 175.40 328.26 180.95 317.27 191.00 314.00
C 191.87 303.20 188.52 293.26 182.00 285.00 Z"/>
</g>
<g fill="#474747" fill-opacity="0.69" stroke="None">
<path d="
M 182.00 285.00 
C 179.76 282.16 177.10 279.06 174.00 277.00
C 176.44 278.91 179.81 282.63 182.00 285.00 Z"/>
</g>
<g fill="#CCCCCC" fill-opacity="0.19" stroke="None">
<path d="
M 197.00 313.00 
C 197.00 312.00 196.97 311.00 197.00 310.00
C 197.28 299.46 192.43 288.14 186.00 280.00
C 185.67 279.72 184.21 279.48 184.00 279.00
C 191.19 289.21 195.82 300.80 197.00 313.00 Z"/>
</g>
<g fill="#7A7A7A" fill-opacity="0.50" stroke="None">
<path d="
M 319.00 283.00 
C 322.31 282.63 320.36 285.37 322.00 288.00
C 322.00 287.50 322.00 287.00 322.00 287.00
C 322.00 285.78 322.52 283.07 322.00 282.00
C 320.98 279.91 319.54 282.62 319.00 283.00 Z"/>
</g>
<g fill="#EFEFEF" fill-opacity="0.07" stroke="None">
<path d="
M 239.00 292.00 
C 239.00 296.65 238.81 301.35 239.00 306.00
C 239.08 307.97 238.68 309.63 240.00 311.00
C 240.00 302.76 239.35 294.21 240.00 286.00
C 240.00 286.00 239.02 285.90 239.00 286.00
C 238.89 287.98 239.00 290.01 239.00 292.00 Z"/>
</g>
<g fill="#EEEEEE" fill-opacity="0.05" stroke="None">
<path d="
M 322.00 288.00 
C 322.00 292.64 323.34 299.59 322.00 304.00
C 323.61 298.68 322.56 292.30 322.00 287.00
C 322.00 287.00 322.00 287.50 322.00 288.00 Z"/>
</g>
<g fill="#808080" fill-opacity="0.49" stroke="None">
<path d="
M 239.00 306.00 
C 238.81 301.35 239.00 296.65 239.00 292.00
C 238.57 296.41 238.34 301.47 239.00 306.00 Z"/>
</g>
<g fill="#5E5E5E" fill-opacity="0.62" stroke="None">
<path d="
M 149.00 304.00 
C 149.00 300.67 149.00 297.33 149.00 294.00
C 148.70 297.08 148.70 300.86 149.00 304.00 Z"/>
</g>
<g fill="#323232" fill-opacity="0.84" stroke="None">
<path d="
M 197.00 313.00 
C 197.00 316.67 197.00 320.33 197.00 324.00
C 197.00 325.33 197.00 326.67 197.00 328.00
C 197.55 322.36 197.82 315.74 197.00 310.00
C 196.97 311.00 197.00 312.00 197.00 313.00 Z"/>
</g>
<g fill="#D2D2D2" fill-opacity="0.17" stroke="None">
<path d="
M 263.00 336.00 
C 263.50 336.01 264.00 336.00 264.00 336.00
C 259.42 332.63 252.88 332.46 248.25 327.75 C 243.62 323.04 243.64 316.49 240.00 312.00
C 240.26 323.38 251.39 335.72 263.00 336.00 Z"/>
</g>
<g fill="#EFEFEF" fill-opacity="0.05" stroke="None">
<path d="
M 229.00 335.00 
C 229.00 332.67 229.00 330.33 229.00 328.00
C 229.00 325.36 229.21 322.63 229.00 320.00
C 229.00 320.00 228.11 320.21 228.00 320.00
C 228.43 324.88 228.59 330.72 229.00 335.00 Z"/>
</g>
<g fill="#DADADA" fill-opacity="0.11" stroke="None">
<path d="
M 197.00 338.00 
C 197.00 334.67 197.00 331.33 197.00 328.00
C 197.00 326.67 197.00 325.33 197.00 324.00
C 196.65 327.58 194.34 334.41 197.00 338.00 Z"/>
</g>
<g fill="#959595" fill-opacity="0.41" stroke="None">
<path d="
M 229.00 335.00 
C 229.00 337.67 229.00 340.33 229.00 343.00
C 229.00 345.33 228.92 347.67 229.00 350.00
C 229.40 343.23 229.67 334.88 229.00 328.00
C 229.00 330.33 229.00 332.67 229.00 335.00 Z"/>
</g>
<g fill="#CCCCCC" fill-opacity="0.20" stroke="None">
<path d="
M 273.00 336.00 
C 273.50 336.00 274.50 335.98 275.00 336.00
C 277.92 336.63 280.26 334.97 283.00 335.00
C 267.66 341.13 252.78 360.37 235.00 360.00
C 235.03 360.00 235.00 361.00 235.00 361.00
C 244.82 362.48 253.58 353.49 262.25 349.25 C 270.93 345.02 278.91 338.92 287.00 334.00
C 283.24 331.99 276.95 335.44 273.00 336.00 Z"/>
</g>
<g fill="#959595" fill-opacity="0.38" stroke="None">
<path d="
M 275.00 336.00 
C 274.50 335.98 273.50 336.00 273.00 336.00
C 270.00 336.00 267.00 336.00 264.00 336.00
C 264.00 336.00 263.50 336.01 263.00 336.00
C 266.98 336.71 270.97 336.65 275.00 336.00 Z"/>
</g>
<g fill="#CECECE" fill-opacity="0.19" stroke="None">
<path d="
M 225.00 354.00 
C 225.00 354.50 225.00 355.00 225.00 355.00
C 225.00 356.67 225.00 358.33 225.00 360.00
C 214.81 353.93 204.33 348.14 197.00 339.00
C 201.86 350.26 215.98 355.42 226.00 361.00
C 226.94 358.67 225.16 355.63 225.00 354.00 Z"/>
</g>
<g fill="#F4F4F4" fill-opacity="0.05" stroke="None">
<path d="
M 235.00 361.00 
C 235.00 361.00 235.03 360.00 235.00 360.00
C 229.20 359.71 229.16 354.70 229.00 350.00
C 228.92 347.67 229.00 345.33 229.00 343.00
C 228.60 347.17 225.45 362.18 235.00 361.00 Z"/>
</g>
<g fill="#727272" fill-opacity="0.56" stroke="None">
<path d="
M 225.00 355.00 
C 225.00 355.00 225.00 354.50 225.00 354.00
C 225.00 352.00 225.00 350.00 225.00 348.00
C 225.00 348.00 224.00 348.04 224.00 348.00
C 224.05 350.29 223.37 353.43 225.00 355.00 Z"/>
</g>
</svg>